<svg width="48" height="48" viewBox="0 0 24 24" xmlns="http://www.w3.org/2000/svg">
  <g>
    <path d="M0 2A2 2 0 0 1 3 .3l15.5 9.3a2 2 0 0 1 0 3.5L3.1 22.4A2 2 0 0 1 0 20.7V2Z" fill="url(#b)"/>
    <path d="M4.57 2a2 2 0 0 1 3-1.7L23 9.6a2 2 0 0 1 0 3.5L7.6 22.4a2 2 0 0 1-3-1.7V2Z" fill="url(#a)"/>
  </g>
  <defs>
    <linearGradient id="a" x1=".2" y1="2.8" x2="19.3" y2="18.5" gradientUnits="userSpaceOnUse">
      <stop stop-color="#FD0031"/>
      <stop offset="1" stop-color="#FC4085"/>
    </linearGradient>
    <linearGradient id="b" x1="-4.4" y1="2.8" x2="19.5" y2="11.3" gradientUnits="userSpaceOnUse">
      <stop stop-color="#55ACEE"/>
      <stop offset="0.6" stop-color="#8264E5" stop-opacity=".3"/>
    </linearGradient>
  </defs>
</svg>
